:SAMPLES-PER-SECOND 30
:FULLY-SPECIFIED
:DEGREES
417
root  -2.24675 38.0756 15.8544 -174.285 -53.1627 177.864
RightUpLeg  -0.747905 -4.05149 -16.5508
RightLeg  24.2364 1.5486 0.53996
RightFoot  -10.1378 -0.370273 28.0699
RightToes  -1.39699e-009 0 -3.6325e-017
Spine  14.5167 3.68737 0.432018
Spine1  19.4856 -1.04995 13.7882
HEad  -28.884 -44.5699 16.5251
LeftShoulder1  1.136 -3.59268 -8.54539
LeftArm  15.1786 -31.1824 -79.1459
LeftForeArm  22.2568 -77.6071 -81.2762
LeftHand  -0.446034 3.64276 29.3399
RightShoulder  1.96756 6.1123 13.5428
RightArm  11.6824 -8.4045 51.9559
RightForeArm  81.2183 71.7043 138.695
RightHand  -0.812281 0.277418 -16.6585
LeftUpLeg  -29.3381 -9.56129 2.30965
LeftLeg  24.0171 -6.98121 -3.06144
LeftFoot  -1.9227 0.794061 -9.48463
LeftToes  3.40148e-010 1.80944e-010 1.01921e-010
418
root  -2.31109 38.047 15.8284 -174.514 -53.0793 177.967
RightUpLeg  -0.644547 -3.74722 -16.4929
RightLeg  24.4917 1.39786 0.472989
RightFoot  -10.1909 -0.358042 28.1328
RightToes  -1.39699e-009 0 -3.6325e-017
Spine  14.6568 3.76259 0.329583
Spine1  19.4611 -1.03567 13.9324
HEad  -28.9766 -44.3027 16.6644
LeftShoulder1  1.14429 -3.58749 -8.66662
LeftArm  15.2263 -30.9608 -78.6956
LeftForeArm  21.8655 -77.5949 -80.9403
LeftHand  -0.502389 3.45046 29.7704
RightShoulder  1.95008 6.08229 13.4125
RightArm  11.8777 -8.3454 52.1284
RightForeArm  81.3329 71.704 138.706
RightHand  -0.74299 -0.0982903 -16.3031
LeftUpLeg  -29.3622 -9.62737 2.3071
LeftLeg  24.5903 -6.83205 -3.07308
LeftFoot  -2.07456 0.739198 -8.95583
LeftToes  3.40148e-010 1.80944e-010 1.01921e-010
419
root  -2.36416 38.0221 15.7955 -174.692 -52.9934 178.006
RightUpLeg  -0.529078 -3.35925 -16.4269
RightLeg  24.7055 1.15305 0.356182
RightFoot  -10.2746 -0.338068 28.173
RightToes  -1.39699e-009 0 -3.6325e-017
Spine  14.7875 3.79577 0.314091
Spine1  19.5007 -0.962791 13.808
HEad  -29.1902 -44.177 16.9721
LeftShoulder1  1.14906 -3.55506 -8.6656
LeftArm  15.2088 -30.7558 -78.4197
LeftForeArm  21.8306 -77.5938 -80.914
LeftHand  -0.502625 3.44651 29.7138
RightShoulder  1.93552 6.0138 13.4055
RightArm  12.0961 -8.2918 52.2761
RightForeArm  81.7013 71.5793 139.063
RightHand  -0.708921 -0.279365 -16.0982
LeftUpLeg  -29.315 -9.3945 2.2206
LeftLeg  25.0467 -6.96015 -3.20469
LeftFoot  -2.20678 0.70098 -8.59933
LeftToes  3.40148e-010 1.80944e-010 1.01921e-010
420
root  -2.41751 37.9963 15.7642 -174.724 -53.0446 177.963
RightUpLeg  -0.420463 -3.20977 -16.4402
RightLeg  24.8801 1.03122 0.29862
RightFoot  -10.3873 -0.311011 28.2189
RightToes  -1.39699e-009 0 -3.6325e-017
Spine  14.7702 3.7507 0.355023
Spine1  19.5781 -0.939545 13.6044
HEad  -29.3046 -44.2321 17.1874
LeftShoulder1  1.15204 -3.53446 -8.66724
LeftArm  15.1736 -30.6539 -78.3238
LeftForeArm  21.4025 -77.5816 -80.661
LeftHand  -0.45802 3.60386 29.4818
RightShoulder  1.93464 6.02664 13.3651
RightArm  12.139 -8.40872 52.3343
RightForeArm  82.1407 71.4033 139.55
RightHand  -0.747141 -0.0819649 -16.3421
LeftUpLeg  -29.3345 -9.2872 2.10641
LeftLeg  25.4296 -7.08952 -3.32874
LeftFoot  -2.38125 0.674658 -8.41902
LeftToes  3.40148e-010 1.80944e-010 1.01921e-010
421
root  -2.46606 37.9714 15.734 -174.694 -53.2446 177.902
RightUpLeg  -0.269621 -3.44554 -16.5218
RightLeg  24.9912 1.13612 0.354139
RightFoot  -10.5201 -0.278618 28.2228
RightToes  -1.39699e-009 0 -3.6325e-017
Spine  14.7255 3.68737 0.416798
Spine1  19.539 -0.958768 13.5119
HEad  -29.2392 -44.3703 17.2011
LeftShoulder1  1.15214 -3.56099 -8.74245
LeftArm  15.2412 -30.602 -78.3436
LeftForeArm  20.8236 -77.5644 -80.3014
LeftHand  -0.451111 3.63568 29.5608
RightShoulder  1.94173 6.08839 13.3019
RightArm  12.0206 -8.61746 52.2702
RightForeArm  82.5739 71.3113 139.818
RightHand  -0.801174 0.21877 -16.6047
LeftUpLeg  -29.4231 -9.46941 2.04089
LeftLeg  25.7827 -7.08609 -3.38168
LeftFoot  -2.58818 0.652047 -8.30782
LeftToes  3.40148e-010 1.80944e-010 1.01921e-010
